<svg aria-hidden="true" style="position: absolute; width: 0; height: 0; overflow: hidden;" version="1.1" xmlns="http://www.w3.org/2000/svg" xmlns:xlink="http://www.w3.org/1999/xlink">
<defs>
<symbol id="icon-quotes-right" viewBox="0 0 54 54">
<path d="M42.188 33.75c-6.524 0-11.813-5.289-11.813-11.813s5.289-11.813 11.813-11.813 11.813 5.289 11.813 11.813l0.053 1.688c0 13.048-10.577 23.625-23.625 23.625v-6.75c4.507 0 8.745-1.755 11.932-4.943 0.614-0.614 1.173-1.266 1.679-1.952-0.603 0.095-1.221 0.145-1.851 0.145zM11.813 33.75c-6.524 0-11.813-5.289-11.813-11.813s5.289-11.813 11.813-11.813 11.813 5.289 11.813 11.813l0.053 1.688c0 13.048-10.577 23.625-23.625 23.625v-6.75c4.507 0 8.745-1.755 11.932-4.943 0.614-0.614 1.174-1.266 1.679-1.952-0.603 0.095-1.221 0.145-1.851 0.145z"></path>
</symbol>
</defs>
</svg>
