<svg aria-hidden="true" style="position: absolute; width: 0; height: 0; overflow: hidden;" version="1.1" xmlns="http://www.w3.org/2000/svg" xmlns:xlink="http://www.w3.org/1999/xlink">
<defs>
<symbol id="icon-header-burger" viewBox="0 0 46 32">
<path fill="none" stroke="#d41443" style="stroke: var(--color1, #d41443)" stroke-linejoin="miter" stroke-linecap="butt" stroke-miterlimit="4" stroke-width="2.2857" d="M0 2.286h45.714M0 16h45.714M0 29.714h45.714"></path>
</symbol>
<symbol id="icon-button-icon" viewBox="0 0 22 32">
<path fill="none" stroke-linejoin="round" stroke-linecap="round" stroke-miterlimit="4" stroke-width="6.4" d="M5.574 3.2l12.88 12.8-12.88 12.8"></path>
</symbol>
<symbol id="icon-close" viewBox="0 0 32 32">
<path fill="none" stroke-linejoin="miter" stroke-linecap="butt" stroke-miterlimit="4" stroke-width="2" d="M2.52 2l26.96 28M2 29.48l28-26.96"></path>
</symbol>
<symbol id="icon-right" viewBox="0 0 32 32">
<path fill="#FFF" style="fill: var(--color1, #FFF)" d="M16 2.667c7.353 0 13.333 5.981 13.333 13.333s-5.98 13.333-13.333 13.333c-7.352 0-13.333-5.981-13.333-13.333s5.981-13.333 13.333-13.333z"></path>
<path fill="#D41443" style="fill: var(--color1, #D41443)" d="M14.076 10.373c0.255 0 0.511 0.096 0.707 0.291l4.648 4.627c0.182 0.181 0.294 0.432 0.294 0.709s-0.112 0.527-0.294 0.709v0l-4.649 4.629c-0.181 0.18-0.43 0.291-0.705 0.291-0.552 0-1-0.448-1-1 0-0.277 0.113-0.528 0.294-0.709l3.939-3.92-3.939-3.92c-0.181-0.181-0.292-0.431-0.292-0.707 0-0.552 0.447-0.999 0.999-1h0z"></path>
</symbol><symbol id="icon-telegram" viewBox="0 0 44 32">
<path fill="#fff" style="fill: var(--color1, #fff)" d="M17.344 21.048l-0.676 8.86c0.966 0 1.384-0.388 1.886-0.852l4.526-4.040 9.38 6.414c1.722 0.894 2.934 0.422 3.4-1.478l6.156-26.932c0.548-2.374-0.92-3.302-2.594-2.72l-36.194 12.934c-2.47 0.896-2.434 2.18-0.42 2.766l9.252 2.684 21.492-12.552c1.012-0.626 1.932-0.28 1.176 0.346l-17.386 14.57z"></path>
</symbol>
<symbol id="icon-git" viewBox="0 0 32 32">
<path fill="#fff" style="fill: var(--color1, #fff)" d="M16 0c-8.789 0-16 7.211-16 16 0 7.499 5.262 14.312 12.25 16v-5.293c-0.276 0.070-0.593 0.109-0.919 0.109-0.398 0-0.781-0.059-1.143-0.169l0.028 0.007c-0.946-0.278-1.714-0.909-2.285-1.869-0.363-0.613-1.008-1.28-1.68-1.23l-0.165-1.867c1.454-0.125 2.71 0.886 3.456 2.139 0.333 0.558 0.715 0.885 1.205 1.029 0.472 0.141 0.981 0.074 1.573-0.136 0.149-1.186 0.693-1.629 1.104-2.256-4.168-0.621-5.829-2.832-6.488-4.576-0.874-2.318-0.405-5.213 1.139-7.043 0.030-0.035 0.085-0.128 0.064-0.192-0.709-2.141 0.154-3.91 0.186-4.098 0.818 0.24 0.95-0.243 3.552 1.336l0.448 0.27c0.189 0.112 0.128 0.048 0.317 0.032 1.003-0.282 2.157-0.452 3.349-0.469l0.010-0c1.136 0.014 2.272 0.176 3.403 0.483l0.146 0.016c-0.013-0.003 0.040-0.010 0.128-0.062 3.248-1.968 3.131-1.325 4.003-1.608 0.032 0.189 0.882 1.987 0.182 4.099-0.096 0.291 2.816 2.957 1.202 7.235-0.659 1.744-2.32 3.957-6.486 4.578 0.534 0.816 1.176 1.248 1.173 2.928v6.606c6.986-1.688 12.25-8.501 12.25-16 0-8.789-7.211-16-16-16z"></path>
</symbol>
<symbol id="icon-fb" viewBox="0 0 16 32">
<path fill="#fff" style="fill: var(--color1, #fff)" d="M14.143 15.971h-4.033v14.865h-6.112v-14.865h-2.906v-5.222h2.906v-3.382c0-2.417 1.142-6.204 6.167-6.204l4.527 0.019v5.072h-3.284c-0.538 0-1.297 0.272-1.297 1.425v3.073h4.567l-0.534 5.219z"></path>
</symbol>
<symbol id="icon-modal-close" viewBox="0 0 32 32">
<path d="M7.81 31.526l-7.336-7.336c-0.141-0.141-0.228-0.336-0.228-0.551s0.087-0.41 0.228-0.551v0l22.614-22.614c0.141-0.141 0.336-0.228 0.551-0.228s0.41 0.087 0.551 0.228v0l7.336 7.336c0.141 0.141 0.228 0.336 0.228 0.551s-0.087 0.41-0.228 0.551v0l-22.614 22.614c-0.141 0.141-0.336 0.228-0.551 0.228s-0.41-0.087-0.551-0.228v0z"></path>
<path d="M31.526 24.19l-7.336 7.336c-0.141 0.141-0.336 0.228-0.551 0.228s-0.41-0.087-0.551-0.228v0l-22.614-22.614c-0.141-0.141-0.228-0.336-0.228-0.551s0.087-0.41 0.228-0.551v0l7.336-7.336c0.141-0.141 0.336-0.228 0.551-0.228s0.41 0.087 0.551 0.228v0l22.614 22.614c0.141 0.141 0.228 0.336 0.228 0.551s-0.087 0.41-0.228 0.551v0z"></path>
</symbol>
<symbol id="icon-modal-submit" viewBox="0 0 32 32">
<path d="M31.735 13.762c-0.030-1.83-1.487-3.326-3.315-3.405l-4.335-0.194c0.017-0.015 0.032-0.032 0.045-0.049l0.001-0.001c0.091-0.122 0.096-0.284 0.013-0.414l-3.909-5.997c0.209-0.581-0.108-1.266-0.75-1.591-0.17-0.086-0.349-0.14-0.533-0.16-0.049-0.006-0.107-0.009-0.164-0.009-0.013 0-0.025 0-0.038 0l0.002-0c-0.449-0.223-0.921-0.364-1.405-0.418-1.255-0.14-2.411 0.324-3.094 1.242-0.467 0.629-0.674 1.428-0.582 2.252 0.088 0.792 0.448 1.576 1.014 2.211 0.057 0.278 0.197 0.541 0.405 0.764 0.263 0.282 0.599 0.458 0.947 0.497 0.325 0.036 0.623-0.055 0.839-0.257 0.002-0.002 0.003-0.003 0.005-0.005l0.81 0.238v1.41l-6.15-0.275c-2.969 0-4.552 1.132-4.84 3.462-0.052 0.418 0.086 0.835 0.377 1.144l0.259 0.276c0.025 0.026 0.040 0.061 0.040 0.1 0 0.004-0 0.008-0.001 0.013l0-0.001c-0.003 0.040-0.022 0.076-0.051 0.1l-0 0-6.742 4.168-0.018 0.049c-0.467 1.294-0.489 4.67-0.15 5.895l0.007 0.025 0.015 0.021c0.042 0.061 0.426 0.591 0.816 0.591l1.050-0.002c-0.001 0.027-0.002 0.054-0.002 0.081 0 1.506 1.225 2.731 2.731 2.731s2.731-1.225 2.731-2.731c0-0.030-0.001-0.060-0.002-0.090l14.384-0.024c-0.003 0.050-0.005 0.108-0.005 0.166v0c0 1.506 1.225 2.731 2.731 2.731s2.731-1.225 2.731-2.731c0-0.059-0.002-0.118-0.006-0.176l2.54-0.004c0.468-0.001 0.905-0.185 1.233-0.519s0.504-0.775 0.496-1.242l-0.131-9.873zM22.787 8.567c0.2-0.119 0.444 0.144 0.525 0.222 0.142 0.154 0.134 0.207 0.139 0.233 0.011 0.056-0.028 0.095-0.082 0.082-0.041-0.012-0.233-0.187-0.31-0.253-0.056-0.052-0.156-0.13-0.186-0.095 0.003 0.017 0.006 0.055 0.107 0.207 0.17 0.226 0.095 0.25 0.044 0.265-0.102 0.016-0.333-0.112-0.293-0.051 0.13 0.186 0.332 0.291 0.267 0.407-0.073 0.114-0.468-0.092-0.568-0.2-0.192-0.174-0.026-0.234 0.1-0.158 0.062 0.040 0.261 0.156 0.271 0.162-0.36-0.315-0.285-0.382-0.191-0.441 0.082-0.048 0.257 0.065 0.285 0.083-0.212-0.266-0.17-0.433-0.109-0.463zM23.353 10.131l-2.94-0.132v-0.732l2.94 0.864zM21.912 8.049c0.072 0.067-0.028 0.125-0.098 0.077-0.136-0.069-0.215 0.096-0.22 0.132-0.022 0.134 0.358 0.541 0.542 0.402 0.028-0.013 0.14-0.21-0.134-0.583-0.159-0.245 0.076-0.251 0.23-0.14s0.39 0.313 0.403 0.341c0.076 0.085-0.002 0.239-0.129 0.188-0.044-0.010-0.193-0.071-0.215-0.086 0.093 0.191 0.015 0.387-0.061 0.453-0.426 0.36-1.041-0.328-0.829-0.702 0.158-0.251 0.474-0.127 0.51-0.083zM20.379 7.178c0.043-0.079 0.242-0.381 0.6-0.141 0.304 0.204 0.137 0.476 0.015 0.607-0.065 0.081-0.153-0.013-0.119-0.069 0.097-0.132 0.168-0.306 0.023-0.389-0.33-0.192-0.394 0.181-0.232 0.374 0.457 0.539 0.825 0.299 0.664-0.057-0.058-0.155 0.097-0.113 0.142-0.039 0.143 0.258-0.027 0.443-0.085 0.521-0.294 0.402-1.396-0.12-1.009-0.806zM19.492 6.176c0.045-0.107 0.147-0.105 0.151-0.004 0.024-0.005 0.001 0.511 0.192 0.675 0.026 0.017 0.145 0.11 0.311 0.214s-0.009 0.277-0.093 0.265c-0.571-0.082-0.999-0.681-1.010-0.704-0.087-0.174 0.11-0.294 0.237-0.164 0.035 0.034 0.282 0.253 0.307 0.248-0.015-0.010-0.163-0.331-0.094-0.53zM20.099 9.175v0.81l-2.094-0.094v-1.332l2.094 0.615zM16.545 2.511c0.072-0.127 0.407-0.609 0.979-0.205 0.485 0.342 0.205 0.777 0 0.985-0.108 0.128-0.248-0.028-0.19-0.116 0.162-0.211 0.284-0.491 0.053-0.631-0.529-0.324-0.647 0.279-0.391 0.598 0.721 0.892 1.328 0.518 1.081-0.066-0.088-0.254 0.162-0.18 0.233-0.058 0.222 0.424-0.062 0.719-0.158 0.843-0.493 0.642-2.262-0.25-1.607-1.348zM16.353 6.409c-0.287 0.021-1.468-0.769-1.635-0.886-0.116-0.082-0.597-0.386-0.645-0.647-0.037-0.137 0.026-0.271 0.199-0.269 0.196 0 0.699 0.386 1.123 0.65 0.54 0.346 0.785 0.492 1.042 0.664 0.327 0.244 0.093 0.48-0.086 0.488zM17.331 4.928c-0.038 0.098-0.134 0.266-0.269 0.394-0.582 0.458-2.336-0.713-1.448-1.637 0.343-0.315 0.677 0.019 0.786 0.118s-0.030 0.233-0.094 0.183c-0.315-0.218-0.449-0.027-0.449 0.049-0.049 0.581 1.012 1.124 1.201 0.843 0.147-0.221-0.058-0.353-0.11-0.412-0.081-0.062-0.046-0.251 0.094-0.197 0.25 0.132 0.35 0.452 0.289 0.658zM17.786 4.953c0.286-0.276 0.578 0.002 0.672 0.084s-0.021 0.199-0.076 0.158c-0.272-0.179-0.383-0.014-0.382 0.051-0.030 0.496 0.885 0.937 1.041 0.694 0.121-0.192-0.057-0.3-0.102-0.349-0.070-0.051-0.044-0.213 0.076-0.169 0.216 0.107 0.307 0.378 0.259 0.555-0.030 0.084-0.109 0.23-0.221 0.341-0.486 0.403-2.005-0.56-1.267-1.365zM12.575 14.471c0-0.561 0.455-1.016 1.016-1.016h11.063c0.561 0 1.016 0.455 1.016 1.016v4.365c0 0.561-0.455 1.016-1.016 1.016h-11.063c-0.561 0-1.016-0.455-1.016-1.016v-4.365zM5.484 17.109c0.002-0.054 0.030-0.101 0.072-0.129l0.001-0 2.472-1.67c0.026-0.018 0.058-0.028 0.092-0.028 0 0 0 0 0 0h1.738c0 0 0 0 0 0 0.091 0 0.164 0.074 0.164 0.164 0 0.001 0 0.001 0 0.002v-0l-0.032 3.702c-0.001 0.090-0.074 0.163-0.164 0.163h-4.237c0 0-0 0-0 0-0.091 0-0.164-0.074-0.164-0.164 0-0.002 0-0.005 0-0.007v0l0.059-2.032zM5.034 27.024c-0.829 0-1.5-0.672-1.5-1.5s0.672-1.5 1.5-1.5c0.829 0 1.5 0.672 1.5 1.5s-0.672 1.5-1.5 1.5zM24.872 27.077c-0.829 0-1.5-0.672-1.5-1.5s0.672-1.5 1.5-1.5 1.5 0.672 1.5 1.5-0.672 1.5-1.5 1.5zM30.826 22.373h-27.846v-1.242h27.846v1.242zM26.698 15.623c0.133 0.009 0.263-0.031 0.379-0.108 0.119 0.061 0.26 0.096 0.408 0.096 0 0 0 0 0 0v0c0.231 0 0.442-0.086 0.6-0.225 0.135 0.14 0.315 0.225 0.513 0.225 0.133 0 0.257-0.039 0.366-0.106 0.108 0.068 0.233 0.106 0.366 0.106 0.18 0 0.345-0.071 0.474-0.188 0.166 0.163 0.386 0.247 0.61 0.208 0.010-0.002 0.019-0.004 0.029-0.006l-1.734 4.695c-0.021 0.057-0.075 0.096-0.138 0.096-0 0-0 0-0.001 0h0c-0 0-0.001 0-0.001 0-0.063 0-0.117-0.040-0.137-0.095l-0-0.001-1.735-4.697zM30.474 15.458c-0.010 0.002-0.019 0.004-0.029 0.006-0.033 0.006-0.071 0.009-0.11 0.009-0.019 0-0.038-0.001-0.057-0.002l0.002 0c-0.12-0.010-0.236-0.055-0.338-0.126-0.040-0.028-0.074-0.057-0.107-0.089l0 0c-0.050 0.045-0.106 0.084-0.167 0.115l-0.004 0.002c-0.088 0.045-0.193 0.071-0.303 0.071h-0c-0.027 0-0.055-0.002-0.081-0.005-0.102-0.012-0.199-0.048-0.285-0.101-0.015 0.010-0.031 0.018-0.047 0.027-0.097 0.051-0.205 0.079-0.319 0.079-0.12 0-0.234-0.032-0.335-0.089-0.055-0.031-0.103-0.066-0.146-0.106l0 0c-0.011-0.010-0.022-0.021-0.032-0.031-0.135 0.119-0.306 0.198-0.496 0.219l-0.004 0c-0.033 0.004-0.067 0.006-0.101 0.006-0.054 0-0.107-0.005-0.159-0.014-0.094-0.017-0.178-0.045-0.255-0.084l0.005 0.002c-0.062 0.041-0.128 0.072-0.197 0.089-0.044 0.012-0.094 0.019-0.146 0.019-0.013 0-0.025-0-0.038-0.001l0.002 0c-0.023-0.001-0.044-0.004-0.065-0.008l0.003 0.001c-0.373-0.068-0.606-0.503-0.521-0.971 0.019-0.105 0.051-0.199 0.095-0.286l-0.003 0.006c0.104-0.211 0.195-0.429 0.275-0.651 0.339-0.944 1.147-1.607 2.088-1.607 0.961 0 1.782 0.691 2.109 1.665 0.073 0.218 0.146 0.436 0.24 0.645 0.032 0.069 0.057 0.149 0.072 0.233l0.001 0.006c0.079 0.458-0.165 0.885-0.55 0.97z"></path>
</symbol>
</defs>
</svg>
